<?xml version="1.0" encoding="UTF-8"?>
<svg width="22px" height="22px" viewBox="0 0 22 22" version="1.1" xmlns="http://www.w3.org/2000/svg" xmlns:xlink="http://www.w3.org/1999/xlink">
    <!-- Generator: Sketch 45.2 (43514) - http://www.bohemiancoding.com/sketch -->
    <title>Fill 3</title>
    <desc>Created with Sketch.</desc>
    <defs></defs>
    <g id="Page-1" stroke="none" stroke-width="1" fill="none" fill-rule="evenodd">
        <g id="Sebastian---Landing-Page" transform="translate(-660.000000, -448.000000)" fill="#FFFFFF">
            <g id="Group-2" transform="translate(-267.000000, -290.000000)">
                <path d="M948.083562,738 L927.917125,738 C927.410438,738 927,738.410437 927,738.916438 L927,759.083562 C927,759.589563 927.410438,760 927.917125,760 L938.6875,760 L938.6875,751.75 L935.9375,751.75 L935.9375,748.3125 L938.6875,748.3125 L938.6875,745.5625 C938.6875,742.721063 940.486688,741.322688 943.0215,741.322688 C944.235625,741.322688 945.27925,741.413437 945.583125,741.453313 L945.583125,744.423312 L943.825187,744.424 C942.44675,744.424 942.125,745.079187 942.125,746.040313 L942.125,748.3125 L945.5625,748.3125 L944.875,751.75 L942.125,751.75 L942.18,760 L948.083562,760 C948.589563,760 949,759.589563 949,759.083562 L949,738.916438 C949,738.410437 948.589563,738 948.083562,738" id="Fill-3"></path>
            </g>
        </g>
    </g>
</svg>