<?xml version="1.0" encoding="UTF-8"?>
<svg width="12px" height="11px" viewBox="0 0 12 11" version="1.1" xmlns="http://www.w3.org/2000/svg" xmlns:xlink="http://www.w3.org/1999/xlink">
    <!-- Generator: Sketch 45.2 (43514) - http://www.bohemiancoding.com/sketch -->
    <title>Page 1</title>
    <desc>Created with Sketch.</desc>
    <defs></defs>
    <g id="Page-1" stroke="none" stroke-width="1" fill="none" fill-rule="evenodd">
        <g id="Sebastian---Gallery" transform="translate(-94.000000, -902.000000)" fill="#FFFFFF">
            <path d="M94,907.601967 C94.0073829,907.794974 94.0875394,908.018577 94.219375,908.158842 L98.539375,912.748842 C98.832568,913.01146 99.393682,913.120092 99.720625,912.816342 C100.043356,912.516804 100.032799,911.935683 99.7121875,911.635092 L96.6746875,908.411832 L104.530068,908.411832 C104.977242,908.411832 105.340068,908.049006 105.340068,907.601832 C105.340068,907.154658 104.977242,906.791832 104.530068,906.791832 L96.6746875,906.791832 L99.7121875,903.568572 C99.9885055,903.291201 100.040184,902.690019 99.720625,902.387322 C99.402106,902.084625 98.819932,902.181658 98.539375,902.454822 L94.219375,907.044822 C94.0717174,907.20197 94,907.386534 94,907.601697 L94,907.601967 Z" id="Page-1"></path>
        </g>
    </g>
</svg>