<?xml version="1.0" encoding="UTF-8"?>
<svg width="25px" height="21px" viewBox="0 0 25 21" version="1.1" xmlns="http://www.w3.org/2000/svg" xmlns:xlink="http://www.w3.org/1999/xlink">
    <!-- Generator: Sketch 45.2 (43514) - http://www.bohemiancoding.com/sketch -->
    <title>Fill 1</title>
    <desc>Created with Sketch.</desc>
    <defs></defs>
    <g id="Page-1" stroke="none" stroke-width="1" fill="none" fill-rule="evenodd">
        <g id="Sebastian---Landing-Page" transform="translate(-716.000000, -450.000000)" fill="#FFFFFF">
            <g id="Group-2" transform="translate(-267.000000, -290.000000)">
                <path d="M1008,742.404688 C1007.08047,742.8125 1006.09141,743.088281 1005.05391,743.2125 C1006.11328,742.577344 1006.92656,741.572656 1007.30938,740.375 C1006.31875,740.9625 1005.22031,741.389063 1004.05234,741.619531 C1003.11641,740.622656 1001.78359,740 1000.30859,740 C997.475781,740 995.179688,742.296094 995.179688,745.128906 C995.179688,745.530469 995.225,745.921875 995.3125,746.297656 C991.049219,746.083594 987.270313,744.041406 984.740625,740.938281 C984.299219,741.696094 984.046094,742.577344 984.046094,743.517187 C984.046094,745.296094 984.951563,746.866406 986.327344,747.785938 C985.486719,747.759375 984.696094,747.528906 984.004688,747.144531 C984.003906,747.166406 984.003906,747.1875 984.003906,747.209375 C984.003906,749.694531 985.771875,751.767187 988.11875,752.238281 C987.688281,752.355469 987.235156,752.417969 986.767187,752.417969 C986.436719,752.417969 986.115625,752.385937 985.802344,752.326563 C986.454687,754.364062 988.349219,755.846875 990.59375,755.888281 C988.838281,757.264063 986.626562,758.083594 984.223438,758.083594 C983.809375,758.083594 983.401562,758.059375 983,758.0125 C985.269531,759.467188 987.965625,760.316406 990.8625,760.316406 C1000.29688,760.316406 1005.45547,752.500781 1005.45547,745.723438 C1005.45547,745.500781 1005.45078,745.279687 1005.44062,745.059375 C1006.44297,744.336719 1007.3125,743.433594 1008,742.404688" id="Fill-1"></path>
            </g>
        </g>
    </g>
</svg>