<?xml version="1.0" encoding="UTF-8"?>
<svg width="32px" height="22px" viewBox="0 0 32 22" version="1.1" xmlns="http://www.w3.org/2000/svg" xmlns:xlink="http://www.w3.org/1999/xlink">
    <!-- Generator: Sketch 45.2 (43514) - http://www.bohemiancoding.com/sketch -->
    <title>Fill 25</title>
    <desc>Created with Sketch.</desc>
    <defs></defs>
    <g id="Page-1" stroke="none" stroke-width="1" fill="none" fill-rule="evenodd">
        <g id="Sebastian---Landing-Page" transform="translate(-890.000000, -450.000000)" fill="#FFFFFF">
            <g id="Group-2" transform="translate(-267.000000, -290.000000)">
                <path d="M1169.41001,755.057004 L1169.40903,746.268539 L1177.86027,750.677922 L1169.41001,755.057004 Z M1187.96637,744.745635 C1187.96637,744.745635 1187.66042,742.590305 1186.72302,741.641178 C1185.53343,740.394899 1184.20016,740.389035 1183.58924,740.316701 C1179.21211,740 1172.64642,740 1172.64642,740 L1172.63274,740 C1172.63274,740 1166.06705,740 1161.68992,740.316701 C1161.07802,740.389035 1159.74572,740.394899 1158.55516,741.641178 C1157.61776,742.590305 1157.31279,744.745635 1157.31279,744.745635 C1157.31279,744.745635 1157,747.277292 1157,749.807971 L1157,752.181277 C1157,754.712934 1157.31279,757.243613 1157.31279,757.243613 C1157.31279,757.243613 1157.61776,759.398943 1158.55516,760.348069 C1159.74572,761.594348 1161.3087,761.555249 1162.00467,761.685253 C1164.507,761.925712 1172.63958,762 1172.63958,762 C1172.63958,762 1179.21211,761.990225 1183.58924,761.673524 C1184.20016,761.600213 1185.53343,761.594348 1186.72302,760.348069 C1187.66042,759.398943 1187.96637,757.243613 1187.96637,757.243613 C1187.96637,757.243613 1188.27916,754.712934 1188.27916,752.181277 L1188.27916,749.807971 C1188.27916,747.277292 1187.96637,744.745635 1187.96637,744.745635 L1187.96637,744.745635 Z" id="Fill-25"></path>
            </g>
        </g>
    </g>
</svg>