<?xml version="1.0" encoding="UTF-8"?>
<svg width="12px" height="11px" viewBox="0 0 12 11" version="1.1" xmlns="http://www.w3.org/2000/svg" xmlns:xlink="http://www.w3.org/1999/xlink">
    <!-- Generator: Sketch 45.2 (43514) - http://www.bohemiancoding.com/sketch -->
    <title>Page 1</title>
    <desc>Created with Sketch.</desc>
    <defs></defs>
    <g id="Page-1" stroke="none" stroke-width="1" fill="none" fill-rule="evenodd">
        <g id="Sebastian---Gallery" transform="translate(-1289.000000, -899.000000)" fill="#FFFFFF">
            <path d="M1300.34007,904.598828 C1300.33269,904.405821 1300.25253,904.182218 1300.12069,904.041953 L1295.80069,899.451953 C1295.5075,899.189335 1294.94639,899.080703 1294.61944,899.384453 C1294.29671,899.683991 1294.30727,900.265112 1294.62788,900.565703 L1297.66538,903.788963 L1289.81,903.788963 C1289.36283,903.788963 1289,904.151789 1289,904.598963 C1289,905.046137 1289.36283,905.408963 1289.81,905.408963 L1297.66538,905.408963 L1294.62788,908.632223 C1294.35156,908.909594 1294.29988,909.510776 1294.61944,909.813473 C1294.93796,910.11617 1295.52014,910.019138 1295.80069,909.745973 L1300.12069,905.155973 C1300.26835,904.998825 1300.34007,904.814261 1300.34007,904.599098 L1300.34007,904.598828 Z" id="Page-1"></path>
        </g>
    </g>
</svg>