<?xml version="1.0" encoding="UTF-8"?>
<svg width="19px" height="16px" viewBox="0 0 19 16" version="1.1" xmlns="http://www.w3.org/2000/svg" xmlns:xlink="http://www.w3.org/1999/xlink">
    <!-- Generator: Sketch 45.2 (43514) - http://www.bohemiancoding.com/sketch -->
    <title>Page 1</title>
    <desc>Created with Sketch.</desc>
    <defs></defs>
    <g id="Page-1" stroke="none" stroke-width="1" fill="none" fill-rule="evenodd">
        <g id="Sebastian---Landing-Page" transform="translate(-1398.000000, -979.000000)" fill="#F5A623">
            <g id="Group-2" transform="translate(-267.000000, -290.000000)">
                <g id="Page-1" transform="translate(1665.000000, 1269.000000)">
                    <path d="M1.227875,2.5592 L13.0625,2.5592 C13.7351,2.5592 14.25,2.03888 14.25,1.3592 C14.25,0.67952 13.7351,0.1592 13.0625,0.1592 L1.227875,0.1592 C0.555275,0.1592 0.040375,0.67952 0.040375,1.3592 C0.040375,2.04044 0.55373125,2.5592 1.227875,2.5592 Z" id="Fill-1"></path>
                    <path d="M13.022125,13.4408 L1.22747917,13.4408 C0.554879167,13.4408 0.0399791667,13.96112 0.0399791667,14.6408 C0.0399791667,15.32048 0.554879167,15.8408 1.22747917,15.8408 L13.0621042,15.8408 C13.7347042,15.8408 14.2496042,15.32048 14.2496042,14.6408 C14.2496042,13.95956 13.6960708,13.4408 13.0218875,13.4408 L13.022125,13.4408 Z" id="Fill-2"></path>
                    <path d="M17.772125,6.8 L1.22747917,6.8 C0.554879167,6.8 0.0399791667,7.32032 0.0399791667,8 C0.0399791667,8.67968 0.554879167,9.2 1.22747917,9.2 L17.8121042,9.2 C18.4847042,9.2 18.9996042,8.67968 18.9996042,8 C18.9996042,7.32032 18.4460708,6.8 17.7718875,6.8 L17.772125,6.8 Z" id="Fill-3"></path>
                </g>
            </g>
        </g>
    </g>
</svg>