<?xml version="1.0" encoding="UTF-8"?>
<svg width="24px" height="24px" viewBox="0 0 24 24" version="1.1" xmlns="http://www.w3.org/2000/svg" xmlns:xlink="http://www.w3.org/1999/xlink">
    <!-- Generator: Sketch 45.2 (43514) - http://www.bohemiancoding.com/sketch -->
    <title>Fill 36</title>
    <desc>Created with Sketch.</desc>
    <defs></defs>
    <g id="Page-1" stroke="none" stroke-width="1" fill="none" fill-rule="evenodd">
        <g id="Sebastian---Landing-Page" transform="translate(-833.000000, -449.000000)" fill="#FFFFFF">
            <g id="Group-2" transform="translate(-267.000000, -290.000000)">
                <path d="M1119.08,749.68 C1115.24,747.4 1108.82,747.16 1105.16,748.3 C1104.56,748.48 1103.96,748.12 1103.78,747.58 C1103.6,746.98 1103.96,746.38 1104.5,746.2 C1108.76,744.94 1115.78,745.18 1120.22,747.82 C1120.76,748.12 1120.94,748.84 1120.64,749.38 C1120.34,749.8 1119.62,749.98 1119.08,749.68 M1118.96,753.04 C1118.66,753.46 1118.12,753.64 1117.7,753.34 C1114.46,751.36 1109.54,750.76 1105.76,751.96 C1105.28,752.08 1104.74,751.84 1104.62,751.36 C1104.5,750.88 1104.74,750.34 1105.22,750.22 C1109.6,748.9 1115,749.56 1118.72,751.84 C1119.08,752.02 1119.26,752.62 1118.96,753.04 M1117.52,756.34 C1117.28,756.7 1116.86,756.82 1116.5,756.58 C1113.68,754.84 1110.14,754.48 1105.94,755.44 C1105.52,755.56 1105.16,755.26 1105.04,754.9 C1104.92,754.48 1105.22,754.12 1105.58,754 C1110.14,752.98 1114.1,753.4 1117.22,755.32 C1117.64,755.5 1117.7,755.98 1117.52,756.34 M1112,739 C1105.4,739 1100,744.4 1100,751 C1100,757.6 1105.4,763 1112,763 C1118.6,763 1124,757.6 1124,751 C1124,744.4 1118.66,739 1112,739" id="Fill-36"></path>
            </g>
        </g>
    </g>
</svg>