<?xml version="1.0" encoding="UTF-8"?>
<svg width="21px" height="21px" viewBox="0 0 21 21" version="1.1" xmlns="http://www.w3.org/2000/svg" xmlns:xlink="http://www.w3.org/1999/xlink">
    <!-- Generator: Sketch 45.2 (43514) - http://www.bohemiancoding.com/sketch -->
    <title>x</title>
    <desc>Created with Sketch.</desc>
    <defs></defs>
    <g id="Page-1" stroke="none" stroke-width="1" fill="none" fill-rule="evenodd">
        <g id="Sebastian---Music" transform="translate(-1339.000000, -50.000000)" fill="#FFFFFF">
            <path d="M1359.14929,68.6005993 L1351.14929,60.6260993 L1359.14929,52.6260993 C1359.59949,52.1260993 1359.59949,51.3506993 1359.1239,50.9014993 C1358.8739,50.6514993 1358.5487,50.5264993 1358.1991,50.5264993 C1357.8739,50.5264993 1357.5741,50.6768893 1357.3495,50.9014993 L1349.374,58.8759993 L1341.1495,50.6259993 C1340.8995,50.3759993 1340.5743,50.2509993 1340.2247,50.2509993 C1339.8995,50.2509993 1339.5997,50.4013893 1339.3751,50.6259993 C1339.15049,50.8759993 1339.0001,51.2011993 1339.0255,51.5263993 C1339.0255,51.8515993 1339.17589,52.1513993 1339.4005,52.3759993 L1347.625,60.6259993 L1339.375,68.8759993 C1339.125,69.1259993 1339,69.4511993 1339,69.8007993 C1339,70.1259993 1339.15039,70.4257993 1339.375,70.6504 C1339.54981,70.80079 1339.8252,71 1340.25,71 C1340.7002,71 1340.9746,70.799805 1341.1504,70.6504 L1349.4004,62.4003993 L1357.37415,70.3758993 C1357.54896,70.5507043 1357.82435,70.7255 1358.27455,70.7255 C1358.72475,70.7255 1358.99915,70.5253043 1359.17495,70.3758993 C1359.42495,70.1258993 1359.54995,69.8006993 1359.54995,69.4510993 C1359.52456,69.1258993 1359.39956,68.8260993 1359.14955,68.6005243 L1359.14929,68.6005993 Z" id="x"></path>
        </g>
    </g>
</svg>