<?xml version="1.0" encoding="UTF-8"?>
<svg width="23px" height="23px" viewBox="0 0 23 23" version="1.1" xmlns="http://www.w3.org/2000/svg" xmlns:xlink="http://www.w3.org/1999/xlink">
    <!-- Generator: Sketch 45.2 (43514) - http://www.bohemiancoding.com/sketch -->
    <title>Fill 23</title>
    <desc>Created with Sketch.</desc>
    <defs></defs>
    <g id="Page-1" stroke="none" stroke-width="1" fill="none" fill-rule="evenodd">
        <g id="Sebastian---Landing-Page" transform="translate(-775.000000, -448.000000)" fill="#FFFFFF">
            <g id="Group-2" transform="translate(-267.000000, -290.000000)">
                <path d="M1062.125,758.84375 L1044.875,758.84375 C1044.47825,758.84375 1044.15625,758.52175 1044.15625,758.125 L1044.15625,747.34375 L1047.03125,747.34375 C1046.65678,747.882812 1046.53028,748.888344 1046.53028,749.526594 C1046.53028,753.3755 1049.66906,756.507094 1053.52659,756.507094 C1057.38484,756.507094 1060.52363,753.3755 1060.52363,749.526594 C1060.52363,748.888344 1060.43306,747.897906 1059.96875,747.34375 L1062.84375,747.34375 L1062.84375,758.125 C1062.84375,758.52175 1062.52175,758.84375 1062.125,758.84375 M1053.52659,745.114188 C1055.96962,745.114188 1057.94978,747.090031 1057.94978,749.526594 C1057.94978,751.963875 1055.96962,753.939719 1053.52659,753.939719 C1051.08428,753.939719 1049.10413,751.963875 1049.10413,749.526594 C1049.10413,747.090031 1051.08428,745.114188 1053.52659,745.114188 M1059.25,740.875 L1061.40625,740.875 C1061.803,740.875 1062.125,741.197 1062.125,741.59375 L1062.125,743.75 C1062.125,744.14675 1061.803,744.46875 1061.40625,744.46875 L1059.25,744.46875 C1058.85325,744.46875 1058.53125,744.14675 1058.53125,743.75 L1058.53125,741.59375 C1058.53125,741.197 1058.85325,740.875 1059.25,740.875 M1062.26588,738 L1044.73412,738 C1043.22403,738 1042,739.221156 1042,740.727656 L1042,758.272344 C1042,759.778844 1043.22403,761 1044.73412,761 L1062.26588,761 C1063.77597,761 1065,759.778844 1065,758.272344 L1065,740.727656 C1065,739.221156 1063.77597,738 1062.26588,738" id="Fill-23"></path>
            </g>
        </g>
    </g>
</svg>